<svg version="1.0" xmlns="http://www.w3.org/2000/svg" width="533.333" height="533.333" viewBox="0 0 400 400"><path d="M185.8 54.1c-25.5 2.6-49.2 11.5-70.8 26.8-3.6 2.5-11.1 9.1-16.8 14.7-5.6 5.5-9.9 9.1-9.5 8 1.5-4.6 1.8-20.7.4-25.4-1.5-5-10.7-16.9-13.5-17.4-3.4-.7-12.7 1.9-14.3 4-4.4 5.6-5.5 9.6-6.2 22.2l-.6 12.5-5 7c-2.7 3.8-5.5 7.6-6.2 8.3-1.9 2-1.6 2.7.5 1 3.5-3 4.5-3.3 3.3-.7-1.8 3.7 6.6-5.9 9.6-11 2.4-4 2.7-5.5 2.8-15.5.3-16.3 4-23.6 12.1-23.6 9.7 0 13 14.3 7.9 34-2.1 8-2.5 11.9-2.5 24.5 0 13.4-.8 30.4-2.5 59.5l-.6 9.5 3.1-5.4c5.3-9.5 9-12.2 16.2-12 2.4.1 5.3-.2 6.5-.6 3.1-1 7.3 3.3 7.4 7.7.1 3.1.2 3 1.4-1.5 2.3-8.4 7.1-13.2 11-11 1.3.7 2.4.2 5.1-2.5 3.2-3.2 3.8-3.4 8.1-2.9 4 .4 5.2.1 7.6-1.9 5.9-5 13.3-1.8 14.7 6.3l.6 3.8 1.7-5.7c.9-3.1 1.7-6.5 1.7-7.5 0-4.8 6-9 10.4-7.3 2.1.8 3 .4 5.9-2.5 4-4 7.9-5.2 11.9-3.7 2.5.9 3.4.7 6.5-1.4 4.1-2.7 5.1-2.9 8.8-1.2 3.3 1.5 5.5 5.6 5.5 10.5l.1 3.8 3.5-6.7c1.9-3.7 4.5-7.5 5.9-8.4 2.3-1.5 2.7-1.5 5 0 3.4 2.3 3.3 7.5-.5 19.6-3.4 10.9-3.5 11.7-1.5 10 2-1.6 7.7-16.7 8-21 .1-1.9.3-4.3.4-5.2.2-2.6 4.6-5.1 7.6-4.4 1.4.4 3.4 2.1 4.5 3.9 1.1 1.7 2 2.6 2 1.8 0-2.4 24.7-51.5 27.4-54.4 3.2-3.4 7-3.6 9.1-.3 2.2 3.3 1.2 6.5-8 28-9.4 21.9-15.5 36.7-15.5 37.4 0 .4 2.4-1.7 5.3-4.5 2.8-2.8 6.7-5.8 8.5-6.8 4.3-2.1 10.8-2.2 13.1-.1 1 .9 2 1.3 2.4 1 1.2-1.2 5.7.7 7.2 3s1.4 2.9-1.4 9.6c-4.2 9.8-3.8 10 1.2.5 2.3-4.4 5-9.1 6-10.5.9-1.3 1.7-3.2 1.7-4.2 0-7.6 11.5-12.8 15.3-6.8 1 1.7 1.2 1.7 4.6-.1 5.5-2.9 10.4-2.5 13.5 1.2 1.5 1.8 2.6 4.3 2.6 6.1v3l4.2-3.7c5.3-4.4 13.3-7 17.3-5.5 1.5.6 2.9.9 3.1.8 1.3-1.4 10.4-21.6 10.4-23.3 0-2.9 4-6.5 7.2-6.5 1.5 0 4 1.2 5.7 2.6 4.5 3.7 4.3 9-.6 18.1-7.4 13.8-20.3 41.1-20.3 42.9 0 .3.9.3 2-.1 5.2-1.6 8.9 4.3 6.4 10.3-4.4 10.6-17.1 15.8-24 9.8l-2.8-2.3-4.8 2.5c-4.4 2.3-5.2 2.4-8.8 1.3-2.3-.7-4.9-2.4-6.1-4l-2.1-2.8-3.6 1.8c-2 1.1-4.3 1.9-5.2 1.9-2.9 0-7.9-3.9-8.6-6.7-1.1-4.6-1.5-4.7-4.1-.2-1.3 2.4-3 4.7-3.6 5.1-1.8 1.1-6.1 1-7.4-.3-.8-.8-1.8-.1-3.8 2.5-5.4 7.1-12.1 9.4-16.6 5.7-2.3-1.9-2.4-1.9-5.4.2-1.8 1.3-4.5 2.2-6.9 2.2-3.2 0-4.4-.7-7-3.7-2.9-3.3-3.3-3.5-5.1-2.2-2.7 2-6.8 1.7-9.7-.5l-2.5-2-4 5.7c-2.1 3.1-5 8.6-6.3 12.2-3.8 10.5-8.5 20.3-11.3 23.5-1.4 1.7-4.7 4.3-7.4 5.7-4.7 2.5-44.5 16.6-75.3 26.7-16 5.2-26.7 10-37.9 17.1-7.7 4.7-11.6 5.1-15.9 1.5-3.9-3.3-4.5-7.7-3.1-23.9 1.5-17.3 2.3-19.5 7.7-22.3l4.3-2.1-3.3-1.7c-1.9-.9-3.4-1.2-3.6-.6-.2.5-1.9 3.1-3.9 5.6-4 5.2-3.5 1.8-6.8 47-2.2 30-3.9 41.4-7.1 48.6-6.9 15.4-19.9 12.9-28.9-5.5-5.9-12.1-7.8-21-7.9-37.6 0-11 .4-16.1 1.8-21 4.1-15.2 12-26.8 24.6-36.5l5.7-4.4.7-10.8c.4-5.9.9-14.2 1.2-18.3l.5-7.5-1.9 5.7C51.7 210.6 45.8 216 38 216c-5.7 0-10.3-2.4-15-7.8-5.2-5.8-8.8-13.6-10.7-23-1.5-7.3-1.3-11.3 1.2-22.2l.6-2.5-1.1 2.4c-1.6 3.7-2.4 1.7-1-2.6 2.2-6.6 5.6-12.6 12.1-20.8 10.2-13.1 10.4-14.3.2-1.9-7.1 8.7-11.9 17-14.8 25.5-3.2 9.7-3 23.4.4 31.9 4.2 10.2 15.2 24.7 21.7 28.6 4.4 2.6 12.1 3.2 16.9 1.4 2.8-1.1 2.8-1.4 1 4.7-.3 1.2-1.4 2.5-2.4 2.8-6.2 1.9-17.6 15.1-22.6 26-4.8 10.4-6.7 20.1-6.6 33.5.1 20.3 3.9 34.8 12.7 48.1 6.9 10.5 7.7 11.3 12.6 13.9 4.3 2.3 12.1 2.6 15.4.7 5.5-3.1 10.5-12.3 12.3-22.4 1.9-10.8 3.1-22.8 3.1-30.1 0-7.6.7-8.5 4.4-5.7 2.3 1.7 10.8 2 13.7.4 1.8-.9 2.9-.3 8.2 4.9 14.9 14.2 39.1 28.2 58 33.6 28.1 8.1 57.9 7.9 84.7-.6 40.4-12.8 74.4-44.2 90.1-83.3 4.7-11.6 8.7-27.4 9.5-37.5.6-6.7 1-7.9 2.8-8.8 1.6-.7 3-.6 5.1.5 4.3 2.3 15.4 1.3 20-1.8 4.8-3.2 9.7-11 10.2-16.2.4-4.2-.3-6-4.4-11.4l-2.2-3 10.6-20.9c9.5-18.8 10.6-21.5 10.7-26.6.1-4.7-.4-6.3-2.9-9.9-4.3-6.1-7.6-8.2-13.8-8.7-4.6-.4-5.7-.1-8.5 2.3-2.1 1.8-3.4 3.9-3.8 6.3-.4 2.1-2.3 7.1-4.3 11.2l-3.6 7.5-5.5.6c-3 .3-7.2 1.5-9.3 2.6l-3.8 1.9-3.9-3.8c-2.1-2.1-4.7-3.8-5.8-3.8-1.4 0-3.2-2.1-6.3-7.3-14.3-24.2-38.3-46.2-63.1-57.6-22.7-10.5-51.2-15.5-75-13zm36.6 7.5c16.5 2.8 36.8 10.8 50.6 19.8 7.1 4.6 3.8 4.8-3.9.2-14.7-8.8-31.5-15.2-48.1-18.2-18.4-3.4-46.3-1.9-62.3 3.2-2.6.9-5.3 1.4-6 1.1-2.9-1 22.3-6.9 34.3-8.1 7.5-.7 25.9.3 35.4 2zm15.3 13.5c5.4 1.7 14.2 5.4 19.5 8.1 8.3 4.4 9.6 5.3 8.8 6.8-.9 1.6-2.2 1.1-13.7-4.6-7.1-3.5-15.9-7.1-19.8-8.1-8-1.9-10.8-3.5-4.9-2.7 3.9.5 3.9.5 1.4-1-3.6-2.2-2.2-2 8.7 1.5zm14.3 12c6.9 3.4 11.9 6.4 11.3 6.6-.7.3-2.6-.5-4.3-1.7-4.1-2.9-16-8.3-24.5-11-9.3-3-10.7-4.5-1.9-2 3.8 1.1 12.5 4.7 19.4 8.1zm-17.5-4.5c7.9 2.5 22.2 8.9 25.9 11.7 1.8 1.3 1.8 1.5.1 4.8-1 1.9-1.9 3.6-2.1 3.8-.1.2-4.9-2-10.6-4.7-5.7-2.8-13.9-6.1-18.3-7.4-7.3-2.1-9.4-3.2-9.5-4.9 0-.3 1.2-.4 2.8-.1 2.7.5 2.7.5.8-1.7-1.3-1.4-1.5-2.1-.6-2.1 1 0 .9-.4-.1-1.6-1.6-1.9-2.1-2 11.6 2.2zm-107 4.4c-.3.5-3.9 3.5-8 6.6-4.1 3-11.4 9.7-16.1 14.7-4.8 5.1-8.1 8.1-7.4 6.8 1.1-2.1 1-2.3-.4-1.8-2.9 1.1-.2-2.5 7.9-10.7 9.4-9.4 18.9-16.6 22.2-16.6 1.3 0 2.1.4 1.8 1zm3.5 2.7c0 1-2.3 3.3-5.2 5.3-5.6 3.8-17.9 15.5-24.7 23.5-2.4 2.7-3.6 3.8-2.7 2.3 1.4-2.5 1.4-2.7-.1-3-3.4-.6 27.9-29.8 31.9-29.8.4 0 .8.8.8 1.7zm94.1 2.1c-.7.2-1.8-.1-2.3-.6-.8-.8-.4-.9 1.3-.5 1.3.4 1.8.8 1 1.1zm73.2 10.5c6.9 7.5 12.9 15.3 17.6 23 6.8 11.2 3.5 9.6-4.2-2-3.9-5.9-10.7-14.6-15.2-19.3-4.4-4.7-8.9-9.9-10-11.5-1.8-2.9-1.7-2.8 2.6.8 2.4 2.2 6.6 6.2 9.2 9zM231.5 93c1.3.5 1.4.9.5.9-.8 0-2.4-.4-3.5-.9-1.3-.5-1.4-.9-.5-.9.8 0 2.4.4 3.5.9zm-91.5.8c0 .4-3.6 3.1-7.9 6-4.4 2.8-12.2 9.2-17.5 14.2-5.5 5.2-10.4 9-11.6 9-1.1 0-2-.4-2-.8 0-.5 2.7-4 5.9-7.9 6.5-7.7 19.9-19 23.4-19.8 1.2-.2 3.1-.6 4.2-.8 3.4-.8 5.5-.7 5.5.1zm91.8 2.2c8.9 2.9 22.5 9.1 23.5 10.7.3.5-.4 3-1.5 5.6l-2 4.7-8.2-4.4c-4.4-2.4-11.9-5.6-16.6-7-12.1-3.8-11.9-3.7-9.4-4.6 1.7-.7 2.1-1.5 1.9-4.4-.4-4.5.2-4.5 12.3-.6zm16 3.7c5 2.5 9.2 4.9 9.2 5.5 0 .5-1.5 0-3.4-1.1-1.8-1.2-7.1-3.9-11.7-6.1-4.6-2.3-7.3-3.8-5.9-3.5 1.4.4 6.7 2.7 11.8 5.2zm-111.4 1.2c.3.4-3.2 3.8-7.9 7.5-4.6 3.6-11 9.6-14.3 13.1-5.6 6.2-8.2 7.9-8.2 5.4 0-2 7.1-9.7 15.8-17.2 10.9-9.3 13.4-10.8 14.6-8.8zm6.6 2.7c0 .3-.5 1.4-1 2.5-.9 1.6-.7 2.1 1.1 2.7 2 .8 1.8 1.1-2.5 3.6-2.5 1.5-8.9 6.8-14.2 11.8-6.5 6.3-9.8 8.8-10.3 8-.4-.7-1.5-1-2.4-.6-1.4.5-1.7 0-1.7-2.6 0-2.5 1.3-4.5 6.3-9.7 5.7-6 16.2-14.3 19.7-15.6 2-.7 5-.8 5-.1zm84 5.5c8.8 2.9 22.4 9.9 21.4 10.9-.5.5-4.6-1-9.5-3.4-4.7-2.4-11.8-5.2-15.8-6.2-7-1.8-9.3-3.4-4.8-3.4 1.3 0 5.2.9 8.7 2.1zm-16.3 1c12.9 1.7 34.3 9.9 36.9 14.1.4.6-2.2-.6-5.8-2.6-13.2-7.3-26.4-10.7-42.4-10.7-32.5 0-60.2 16.4-76.9 45.4-2.5 4.5-4.3 7.1-4 5.7 1.3-4.3 8.1-15.2 13.7-21.7 16.1-18.8 40.9-30.5 66-31.2 2.6 0 8.2.4 12.5 1zm87.4 3.9c2.9 3.1 5.2 4.8 6.2 4.5.9-.4 1.6.1 2 1.4.4 1.7.2 1.9-1.3 1.1-2.6-1.4-3-1.3-3 .7 0 2.4-8.6-6.2-9.9-9.9-1.5-4.3.6-3.5 6 2.2zm84.9-3.9c1.1.7.4.8-2.5.3-5-.8-5.8-1.4-1.9-1.4 1.6 0 3.6.5 4.4 1.1zm-145 .9c.8.5 1.1 1 .5 1-.5 0-1.7-.5-2.5-1s-1-1-.5-1c.6 0 1.7.5 2.5 1zm-90 .4c0 .2-3.5 3.1-7.8 6.4-4.3 3.3-10.6 9-14 12.6-3.4 3.6-6.4 6.6-6.7 6.6-2 0 .4-4.2 5.8-9.7 8.4-8.8 22.7-18.8 22.7-15.9zm100 5.2c0 .2-.9 0-2-.6s-2-1.3-2-1.6c0-.2.9 0 2 .6s2 1.3 2 1.6zm47.8 2.4c5.1 6 4.2 6.7-1.3 1-2.1-2.2-4.4-4-4.9-4-.6 0 .6 1.7 2.6 3.7 2 2.1 4.1 4.8 4.7 6 1 2 .9 2.3-1.4 2.9-2.1.5-3.3 0-6.2-2.7-1.9-1.9-3.9-4.3-4.5-5.4-.9-1.6-.8-1.8.3-.8 2 1.9 3.1 1.6 2.7-1-.3-1.9 1.6-4.6 3.2-4.7.3 0 2.4 2.3 4.8 5zm-75.3-1.9c5.8 1.4 14.2 4.8 20.2 8.2 4.8 2.6 5.2 3.1 4.1 5-.6 1.2-1.7 2.5-2.4 2.9-.6.5-1 1.7-.7 2.8.4 1.6.2 1.9-1.1 1.4-.9-.3-1.6-.9-1.6-1.3 0-1.1-8.7.4-10.3 1.7-1.1.9-2.1.8-4.6-.4-3.9-2-7.6-1.2-11.3 2.3l-2.7 2.5-2.8-1.9c-2.4-1.8-6.7-3.4-9.8-3.8-.5 0-2.6.9-4.6 2.1-2.8 1.7-4.3 2.1-7 1.5-4-.9-9.2.9-13.1 4.6-1.7 1.7-3.3 2.3-4.6 1.9-1.1-.4-3.1-.2-4.6.4-3.7 1.4-9.6 6.2-9.6 7.8 0 1-.4 1-1.5-.2-.9-.9-2.2-1.9-2.9-2.3-.7-.5-2-1.9-3-3.3l-1.8-2.5.8 2.5c.4 1.4 1.6 3.2 2.8 4 2 1.4 1.9 1.5-2.9 2.3-2.7.4-5.8.8-6.7.9-1 .1-1.8.8-1.8 1.4 0 .8-2.1 1.3-5.4 1.6l-5.3.3 1.5-3.2c.8-1.8 2-2.9 2.5-2.6.6.3.7.1.3-.6-.9-1.3 6.2-11.1 8-11.1.6 0 1.9.9 2.9 2s2.3 2 2.9 2c.5 0-.5-1.3-2.3-2.8l-3.3-2.8 4.1-3.7c2.3-2.1 4.7-3.5 5.3-3.1.6.4.8.3.5-.3-.4-.6 0-1.6.8-2.3.8-.7 1.5-1 1.5-.6 0 .3.9-.3 2.1-1.5 2.9-2.9 18.4-10.2 21.9-10.3 1.7-.1 3-.4 3-.8 0-2.6 32.4-3.2 42.5-.7zm-74.1-.2c.4.5-1.5 2.5-4.1 4.4-2.7 2-7.9 6.7-11.8 10.6-6.8 7-8.5 8.2-8.5 6.1 0-1.6 8.6-10.6 15.9-16.7 6.7-5.5 7.6-5.9 8.5-4.4zm146.2 14.9c-.8 1.3-9.6-7.9-9.6-9.9 0-.8 2.3.9 5.1 3.8 2.8 2.8 4.9 5.5 4.5 6.1zm-6.3-3.7l3.4 4.2-2.5 3.9c-2.5 3.7-2.8 3.8-7.4 3.6-5.1-.3-5.6-.8-3.3-3.1.8-.8 1.1-1.8.7-2.2-.4-.5.1-.5 1.1-.2 1.8.7 2.4-.7.8-1.7-1-.7 1.7-8.6 3-8.6.4 0 2.3 1.9 4.2 4.1zm80.7-2.7c0 1.1-1.9 1.5-2.5.6-.3-.5.1-1 .9-1 .9 0 1.6.2 1.6.4zm-59.3 80.8c-.8 8.4-1.6 12-2.7 11.3-.4-.2-1.5.4-2.5 1.5-2.4 2.7-3.5 2.5-3.5-.6 0-2.3-.2-2.5-1.5-1.4-.9.7-1.7 1.1-2 .9-.2-.3.1-3.7.7-7.7.9-5.4 1.5-7.2 2.7-7.2.9 0 3-.9 4.6-1.9 1.7-1.1 3.4-2 3.9-2 .5-.1.6 3 .3 7.1zm12.8 2.7c-1 9.1-1.7 12.1-2.6 12.1-.5 0-.9-.7-.9-1.5 0-2.3-1.6-1.8-3.4 1-2.1 3.2-5.1 3.4-4.2.2.3-1.2 1.1-5.8 1.7-10.2l1.1-8 4.5.4 4.5.3-.7 5.7zm2.5 3.3c-.7 5.1-1.6 10-2.1 10.8-1.2 2.1-1.1.3.2-7.9.6-3.6 1.3-8.1 1.5-10 .3-1.8.8-3 1.1-2.7.3.3 0 4.7-.7 9.8zm-27.3-7c-.3.8-.6.5-.6-.6-.1-1.1.2-1.7.5-1.3.3.3.4 1.2.1 1.9zm13.8 7.6c-1 8-1.7 5.7-.8-2.9.4-4.1.9-6.3 1.1-5 .2 1.4.1 4.9-.3 7.9zm19.1-1.7c-.5 5.7-2.3 13.3-2.5 10.5-.1-.5-.8-.2-1.8.5-1.5 1.3-1.6 1.1-1-1.1.3-1.4.9-5.4 1.2-9 .8-8.4 1.1-9.1 3.1-8.3 1.4.5 1.6 1.6 1 7.4zm-36.1 1.6c-.9 3.8-2.6 1.6-2-2.5.4-2 .9-4.4 1.3-5.2.8-2.1 1.5 4.6.7 7.7zm-46.1-5.5c3.5-.1 9.3 2.7 8.1 3.9-1 1 11.6.9 13.5-.1 2.8-1.5 13 .7 13 2.8 0 2.8-3.2 12.2-4.1 12.2-.6 0-.8.4-.4.9.7 1.2-1.5 6.1-2.7 6.1-.5 0-.7.4-.4.9.8 1.2-3.8 9.3-7.4 13.1-1.5 1.6-2.5 3-2.2 3 1.4 0-9.7 10.5-15.5 14.6-21.9 15.8-47.8 19.7-75.6 11.4-2.2-.6-3.5-1.5-3.1-2.2.4-.6-.1-.8-1.2-.5-1.1.3-3.9-.5-6.4-1.8-2.5-1.3-4.2-2.4-3.9-2.5.4 0 6.6-2 13.8-4.5 7.2-2.5 13.6-4.3 14.1-4 .6.3 1 .2 1-.4 0-.8 5-2.7 12-4.6.3-.1 1.8-.7 3.4-1.4 2.3-.9 3.1-.9 3.9.1.6 1 .8.9.4-.3s.6-2.2 3.3-3.4c6.3-2.8 10.9-8.3 15.8-18.5 2.5-5.2 4.5-9.6 4.4-9.7-.4-.8 3.2-9.4 5.4-12.6 2.1-3.1 2.9-3.7 4.7-3.1 1.2.4 4 .7 6.1.6zm90.6 2.4c0 4.1-3.8 21.6-6.6 30.7-6 19-16.8 36.8-32 52.6-20.4 21.3-48.6 36-77.7 40.6-7.6 1.2-11.1 1.4-12.4.6-1.5-.9-1.3-1 1.3-1.1 5.8 0 20.4-3 30.2-6.1 38.4-12.3 70.2-41.5 85.2-78.3 4.2-10.4 8.5-26.3 9.6-35.5.6-6 2.4-8.5 2.4-3.5zm-51.5 8.5c-9.8 40.3-45.6 68.6-86.2 68-16.6-.2-30.9-3.8-43.1-10.9-6.9-3.9-4.3-3.5 4.1.7 13.4 6.7 21.9 8.6 39.2 8.6 12.6 0 16.2-.4 22.8-2.3 31.1-9 54.7-33.5 61.9-64.5 1.2-5 2.4-8.5 2.6-7.8.2.7-.3 4.4-1.3 8.2zm9.2-5.4c-.3 1-.5.4-.5-1.2 0-1.7.2-2.4.5-1.8.2.7.2 2.1 0 3zm24.5 12.9c1.8.5 1.8.7.4 2.3-.9 1-1.6 2.8-1.6 4 0 2.1-.1 2.1-2.2.7-1.5-1.1-2.6-1.2-3.9-.5-1.6.8-1.8.5-1.7-1.8.1-1.6-.2-3.6-.6-4.6-.6-1.3-.3-1.7 1.2-1.7 1.1 0 2.6-.7 3.3-1.6 1.2-1.5 1.4-1.4 2.3.5.5 1.1 1.8 2.3 2.8 2.7zm-13.7 14.7c8.1 3.1 9.5 6.9 3.3 8.5-3.2.8-3.3.9-1 2.1 2.4 1.3 2.6 1.9 1.3 3.9-.7 1.1-1.8.9-5.9-1.2-2.8-1.4-5.3-2.6-5.6-2.6-.7 0-1.9 6.1-1.3 6.6.3.3 1.4 0 2.6-.7 2.7-1.8 3.6-.6 2.3 3-1.4 4 .2 4 1.8.1.7-1.7 1.6-3 2.1-3 1.4 0 1.1 1.6-1.2 5.5-1.9 3.2-2.5 3.5-5.3 3-2.6-.6-8.5-5.7-8.6-7.6 0-.3 1.5-2.2 3.4-4.3 1.9-2 3.6-4.5 3.8-5.4.2-1.2 1.5-1.8 4.6-2 4.9-.4 5.4-1.5 1.2-3.2-1.6-.7-3-1.9-3-2.6 0-1.7 1.4-1.7 5.5-.1zM290 263c4.2 2.1 7 5.4 7 8.2 0 2.1-1.1 2.3-2.8.6-.9-.9-1.3-.7-1.8.6-.4 1.1 0 2.2 1.2 3.1 1.4 1 1.6 1.7.8 2.5-1.3 1.3-7.3-2-10.8-5.9-1.8-2-1.9-2.3-.3-3.8 1.5-1.6 1.8-1.5 3.7.2 1.1 1 2.3 1.5 2.8 1.1.4-.5-.7-2-2.4-3.4-1.7-1.5-2.9-3.3-2.7-4 .6-1.6.7-1.6 5.3.8zm-7.5 10c1.5 1.6 1.6 2.3.6 3.3-.6.6-1.9 1.2-2.9 1.2-1.1 0-1.6.6-1.4 2 .5 2.9 2.1 4.5 4.4 4.5 1.8 0 1.9-.2.7-1.6-1.1-1.4-1-1.8.6-3 1.7-1.3 2.2-1.2 3.9.6 2 1.9 2 2-.4 4.5-1.3 1.4-3.1 2.5-4.1 2.5-2.1 0-6.9-2-6.9-2.9 0-.3-.4-1.3-1-2.1-.7-1.2-1.2-1.1-3 .5l-2.1 1.9 3.7 3.7c3.1 3.2 3.5 4.1 2.4 5.4-1.9 2.3-3.5 1.8-6.6-1.8-1.5-1.7-3.6-3.2-4.7-3.2s-2.2-.5-2.3-1c-.4-1.5 9.4-8.8 10.7-7.9.8.4.9-.1.4-1.7-.6-1.8-.2-2.8 2.1-4.6 3.5-2.8 3.6-2.8 5.9-.3zM144 276.5c2.1 2.5.1 3.1-2.2.7-1.8-1.8-1.9-2.2-.6-2.2.8 0 2.1.7 2.8 1.5zm-3 2.5c2.8 2.3 3.1 2.9 1.7 3-2.4 0-7.9-3.9-7.2-5.1.9-1.4 1.8-1.1 5.5 2.1zm-4 2.5c1.9 1.9 2.9 3.5 2.2 3.5-.7 0-1.2 1-1.2 2.3 0 2-.4 2.3-2.9 1.9-1.6-.2-5-2.1-7.6-4.3-4.6-3.8-4.6-3.9-2.3-4.7 1.2-.5 3-1.2 3.8-1.5 3.1-1.2 4.7-.6 8 2.8zm-9 5.7c6.6 5 8.1 7 6.2 8.2-1.2.7-16.3-11.4-15.7-12.5 1.1-1.6 2.4-1 9.5 4.3zm-5.5 1.9c5.2 4.2 8.5 8.3 8.5 10.4 0 1.8-4.3-.4-11-5.5-9.2-7-9.6-7.5-7.3-8.9 2.8-1.6 3.1-1.4 9.8 4zm-5.7 4.1c4.3 3.5 9.2 7.3 10.8 8.6 2.5 2 2.6 2.2.7 1.7-1.4-.4-2.3-.2-2.3.5 0 1.4-7-3.6-14.5-10.3-4.2-3.7-5.3-5.2-4.3-5.8.7-.5 1.4-.9 1.5-.9.1 0 3.8 2.8 8.1 6.2zm147.6-1.8c4 4.9 5 8.8 2.5 9.4-1.9.4-9.4-11.1-8.4-12.8 1.1-1.7 2.2-1.1 5.9 3.4zm-155.8 1.7c1.6 1.7 6.1 5.4 9.9 8.2 9 6.5 9.6 7 6.2 5.8-3.5-1.4-4-1.4-3.2-.1 1.2 2-.9.9-5.9-2.9-9.5-7.3-14-11.7-13.2-12.9 1.2-2 3.1-1.4 6.2 1.9zm149 3c-.6 3.5-.4 3.9 1.4 3.9 2.4 0 4.4 4.1 2.6 5.2-.6.4-1.2.3-1.4-.2-.2-.6-1.3-1-2.3-1-1.5 0-1.9.6-1.7 2.2.2 1.7-.2 2.3-1.6 2.3-1.3 0-3-1.9-5.3-6.1-2.8-5.1-3.1-6.3-1.9-7.3 1.1-.9 1.8-.5 3.4 2.1l2.1 3.2.6-2.6c.4-1.5.4-3.1.1-3.7-.7-1.1 2.4-3.2 3.7-2.4.5.3.6 2.3.3 4.4zm-106.3 5l2.1 1.2-2.3.9c-1.3.4-2.5 1.7-2.8 2.8-.6 2.4-1.9 2.6-2.7.5-.3-.8-1.7-1.5-3.1-1.5-2.2 0-2.4-.3-1.6-1.8.6-1 .7-2.9.4-4.1-.5-1.9-.3-2.1 1.9-1.6 1.7.4 2.9.1 3.9-1.1 1.3-1.6 1.4-1.5 1.7.9.2 1.5 1.3 3.2 2.5 3.8zm16 0c2.6.7 4.1 1.8 4.7 3.5 1.7 4.4 1.2 6.1-2.2 7.5-1.8.7-3.4 1.3-3.6 1.4-.1.1 0 1 .4 1.9.5 1.2 1 1.4 1.9.6 1.3-1.1 4.5-.4 4.5 1 0 .4-.8 1.5-1.9 2.4-1.5 1.4-2.3 1.5-4.5.5-2-1-2.6-1.9-2.6-4.6 0-2.6-.4-3.3-2-3.3-1.1 0-2 .4-2 1 0 .5-.4 1-1 1-1.5 0-1.2-3.9.7-9.3 1.8-5.1 2-5.2 7.6-3.6zm72.7.3c0 .8-.9 1.8-2 2.1-2.7.9-2.6 3.5.1 3.2 3.2-.3 3.5 2.1.5 3.4-3.4 1.6-3.4 3.1 0 1.9 1.4-.6 3.2-1 4-1 2.7 0 .5 1.8-4.1 3.3l-4.4 1.6-2.1-3.3c-1.1-1.9-2-5-2-6.9 0-3.2.4-3.7 2.8-4.3 1.5-.3 3.2-.7 3.7-.9 2.2-.8 3.5-.4 3.5.9zm-55.7 4.2c3.4.8 3.6 3.4.3 3.4-3.2 0-4.4 2-1.7 2.7 3.6.9 2.5 3.3-1.5 3.3-2.1 0-3.3.4-2.9 1 .3.5 1.9 1 3.5 1s3.2.4 3.5 1c.7 1.1-6.3 1.4-8.9.4-3.5-1.3-.2-15 3.3-14 .9.3 2.8.8 4.4 1.2zm42.9 1.2c2.4 4 2.8 10.5.7 11-1 .2-1.9-.5-2.2-1.8-.7-2.7-2.5-2.5-3.6.4-1.5 3.9-3.8 4-5.1.1-1.4-4.1-.4-10.2 1.9-11.5 3.2-1.9 6.6-1.1 8.3 1.8zm-30.3-1.2c2.6.6 3.1 1.1 3.1 3.5s-.4 2.9-2.5 2.9c-1.6 0-2.5-.6-2.5-1.5 0-2.6-2.7-1.6-4 1.4-1.3 3.3 0 7.1 2.5 7.1 2 0 1.9-1.9 0-2.6-2.8-1.1-1.5-2.4 2.5-2.4h4v4c0 3.9-.1 4-3.2 3.9-5.1-.1-7.1-1.3-8.3-5-1-2.9-.9-4 .8-7.7 2.2-4.4 2.6-4.6 7.6-3.6zm16.9 2.6c.2 1.6-.1 2.8-.7 2.8-.5 0-1.6.3-2.5.6-1.1.4-1.6.1-1.6-1 0-2.5-2.6-1.9-3.9 1-1 2.2-.9 3.1.4 5 1.7 2.6 3 3 4 1.3.4-.6-.2-1.3-1.4-1.6-3.3-.8-2.5-2 1.7-2.6 4.8-.6 5.2-.3 5.2 3.9 0 3.2-.2 3.4-3.4 3.4-1.9 0-4.1.3-5 .6-1 .4-2-.5-3-3.1-2-4.6-2-5.4-.1-9.9 1.5-3.5 1.8-3.7 5.8-3.4 3.8.3 4.2.6 4.5 3z"/><path d="M170.7 122.7c-.2.5.5 1.7 1.6 2.7 1.8 1.7 2 1.7 1.4.2-.4-1-.7-2.2-.7-2.7 0-1.1-1.7-1.2-2.3-.2zm42.3 1.4c0 .5.5.7 1 .4.6-.3 1-.8 1-1.1 0-.2-.4-.4-1-.4-.5 0-1 .5-1 1.1zm-38 1.9c0 .5.7 1 1.5 1 .9 0 1.2.6.9 1.7-.4 1.1-.2 1.4.3.8 1.4-1.7 3.6-1.7 3 0-.4.8-.2 1.5.4 1.5.6 0 .9-.8.7-1.7-.3-1.8-6.8-5-6.8-3.3zm8 4c0 1.3 1.1 1.3 3 0 1.2-.8 1.1-1-.7-1-1.3 0-2.3.4-2.3 1zm22 2c0 .5.5 1 1.1 1 .5 0 .7-.5.4-1-.3-.6-.8-1-1.1-1-.2 0-.4.4-.4 1zm13.3.7c.9.2 2.3.2 3 0 .6-.3-.1-.5-1.8-.5-1.6 0-2.2.2-1.2.5zm17.5 1c.6.2 1.8.2 2.5 0 .6-.3.1-.5-1.3-.5-1.4 0-1.9.2-1.2.5zM158 137c0 .5.7.7 1.5.4.8-.4 1.5-.8 1.5-1 0-.2-.7-.4-1.5-.4s-1.5.4-1.5 1zm29 1c0 .5.5 1 1.1 1 .5 0 .7-.5.4-1-.3-.6-.8-1-1.1-1-.2 0-.4.4-.4 1zm65.9 85.7c-1.2 1.6-1.2 1.7.2.6.9-.7 2-.9 2.4-.5.5.4.5.1.1-.6-.9-1.6-1.1-1.5-2.7.5zM234 236.8c.6 1.3 1.4 2.1 1.8 1.8.3-.4-.2-1.4-1.2-2.4-1.8-1.6-1.8-1.6-.6.6zm23.6 6.4c.3.4.9.8 1.5.8.5 0 .9-.4.9-.8 0-.5-.7-.9-1.5-.9s-1.2.4-.9.9zm-11.1 8.8c-.3.5-.1 1 .4 1 .6 0 1.1-.5 1.1-1 0-.6-.2-1-.4-1-.3 0-.8.4-1.1 1zm-83.8 54c-.4 1.6.1 2.3 2 3.1 2.4.9 4.3.5 4.3-.9s-1.6-3-3.6-3.6c-1.7-.5-2.3-.2-2.7 1.4zm58.3 3.9c0 1.2.6 2.1 1.6 2.1.9 0 1.4-.7 1.2-1.7-.5-2.5-2.8-2.8-2.8-.4z"/><path d="M68.8 70.2c-3.4 2.5-4.8 8.3-4.8 19.1 0 13-1.4 16-14.1 30.7-15.1 17.4-26 31.2-28.4 36-7.9 15.6-7 32.6 2.4 46.3 12.8 18.6 29.1 8.4 29.2-18.4 0-8.9-2-15.2-4.8-14.7-1.3.2-1.9 1.4-2.1 4.3-.4 4.6-2.6 7.5-5.7 7.5-8.9 0-7.6-18 2.7-35.4 3.5-5.9 18.1-26.1 21.1-29.1 1.6-1.7-1.5 69.1-4.9 109.6l-.6 7.7-6.4 4.6c-12.6 9.3-20.5 21.2-23.9 36.1-1.9 8.1-2.2 25.2-.6 34.2 3.3 17.7 12.5 33.3 19.7 33.3 5.1 0 9.1-7.2 11.3-20.5.6-3.3 1.7-15.9 2.6-28 .9-12.1 2-26.1 2.5-31 .5-5 1-11.2 1-13.8 0-4 .6-5.5 4.1-9.9 2.2-2.8 5-7 6.1-9.1l2-4 2.5 3.1c4.5 5.9 9.6 3.2 12.3-6.4l1.3-4.7 1.6 3.3c3.5 7.2 7 6.6 11.2-2l2.7-5.4.6 3.1c.4 1.7 1.8 4.1 3.1 5.3l2.4 2.3 1-2.4c.5-1.3 1.4-7.1 2-12.8.6-5.7 1.8-13.1 2.7-16.3 2.7-10.6 8.4-21.5 8.4-16.1 0 1-.9 6.1-2 11.3-2.9 13.9-2.3 31 1 31 1.2 0 1.7-2 3.5-14.1 2.5-16.6 8.1-32.9 11.5-32.9 1.3 0 1.4-.3-1.7 11.3-3.4 13.1-3.6 23.4-.7 27.4 5 6.7 7.9 4 15.1-13.6.9-2.5 1-2.4 2.9 1.5 1 2.1 2.6 3.9 3.4 3.9 1.5 0 2.1-2 6.4-21.6 2.6-11.8 12.5-30.1 12-22.1-.1.9-1.4 5.7-2.9 10.7-3.1 10.2-4.5 24.8-2.6 28.4.7 1.2 1.6 1.9 2.1 1.6.4-.3 2-5.4 3.4-11.4 3.1-13.2 6.7-23 10.7-29.3 2.9-4.5 4.9-6.1 4.9-3.9 0 .5-1.7 5.8-3.7 11.8-4.6 13.4-5.2 23.8-1.6 27.4 3.1 3.2 6.8 1.9 10.1-3.5l2.7-4.3 1.5 4.1c1.3 3.4 2 4.1 4.6 4.4 3.1.3 5.9-2 10.6-8.8 1.3-1.9 1.1-.8-.7 4.8-4.9 14.8-7.3 16.5-26.7 19.3-28.2 4.1-45 8.9-95.8 27.4-8.5 3.1-16.3 6.4-17.2 7.3-1.9 1.9-3.8 16.2-3.8 28.5 0 11.7 3.9 13 15.9 5.2 10.4-6.7 18-10 41.1-17.6 32.5-10.6 63.5-21.6 69-24.4 6.2-3.2 9.4-7.9 15-22.1 2.2-5.6 4-10.6 4-11 0-.3 2.2-3.6 4.8-7.3 2.7-3.6 5.7-8.1 6.9-9.9l2-3.3 1.2 4c2.1 7.3 5.9 7.5 11.9.7l3-3.5.7 4.2c1.7 10.4 6.8 11.7 13.9 3.5l4.6-5.3v3.3c0 3.1 2.8 7.2 5 7.2 1.6 0 9-7.1 12.2-11.8l3.1-4.5 1.5 3.7c.8 2 2 3.5 2.6 3.3.6-.1 4-6.2 7.6-13.3 6.7-13.5 12.2-21.9 16.7-25.4 6-4.7 5.7-1.4-.9 9.2-6.2 10-8.8 16.4-8.8 21.9 0 9.1 5.1 10.6 12.5 3.8l4.5-4.2v2.7c0 3.4 2.4 8.2 4.5 9 4.8 1.8 10.7-1.3 14.5-7.7l1.8-2.9.7 4.2c1 6 3.7 8.4 8.3 7.5 4.8-.9 7.8-2.9 10.2-6.8 3.4-5.5 1.9-9.2-1.8-4.7-1 1.1-2.8 2.1-4.2 2.2-2 .3-2.6-.2-2.8-2.3-.4-3.7 5.6-18.3 16.5-39.9 5.1-10.2 9.3-19.5 9.3-20.6 0-2.8-2.3-4.6-5.2-4.2-1.7.2-2.4 1.2-3 4-1.1 5.4-13.1 28.8-14.8 28.8-.3 0-1-1-1.5-2.3-3.5-7.9-19.3 2.1-26.6 16.8-3.2 6.5-8.2 12-10 10.9-2-1.2-.6-6.1 4.3-14.7 5.5-9.5 6.5-14.4 3.6-17.3-2.4-2.4-7.1-.9-13.1 4l-5.2 4.2.3-4.8c.4-4.6.3-4.8-2.1-4.8-2.8 0-5.7 3.2-5.7 6.3 0 1-.8 3.1-1.8 4.5-3.1 4.5-7.8 13.5-9.6 18.3-1.9 5.1-7.7 11.9-10 11.9-3 0-1.9-8.3 2.4-18.9 2.2-5.3 4-10 4-10.4 0-1.7-3.9-.5-4.5 1.3-.9 2.8-2.3 2.5-2.7-.6-.4-3.6-2.7-4.8-7.3-4-5.1 1-16.1 11.9-19.7 19.6-4.2 9-7.8 10.4-7.8 3.1 0-4 5.3-18 19.7-51.5 8.1-19 10.6-26.6 8.7-26.6-.5 0-2.1 1.9-3.5 4.3-6 9.4-30.6 61-34.5 72-1.5 4.3-10.4 19-11.1 18.4-.2-.3 1.4-5.1 3.5-10.8 8.3-21.9 9.9-29.9 6.3-31.8-2.5-1.4-3.1-.5-3.1 4.1 0 4.2-5.1 18.4-8.4 23.5-2.4 3.7-5.8 5.8-8 5-2.5-1-1.9-8 1.4-18.7 3.1-9.8 3.7-14 2-14-.9 0-6.7 11.2-13.9 26.7-5.8 12.7-10.8 9.6-6.2-3.9 1-3 2.5-8 3.1-11.1 1.1-4.9 1.1-5.9-.4-8.1-2.5-3.8-5.8-3.4-9.9 1.4-1.9 2.2-3.6 4-3.9 4-.3 0-.9-1.1-1.2-2.4-1.5-6-7-3.8-13.2 5.1-2.5 3.7-4.4 6-4 5 .3-.9.1-2.9-.4-4.3-1.3-3.3-5.2-3-6.2.6-.3 1.4-1.9 7-3.3 12.5-4.2 15.4-5.4 19.1-7.8 22.6-5 7.4-6.5 3.1-3.7-10.6 2.5-12 2.5-14.7.1-17.6-1.6-2-2.2-2.2-4.4-1.2-1.5.7-3.9 3.1-5.4 5.4l-2.7 4.1-.9-2.5c-1.1-3.3-4.1-4.3-7.1-2.4-1.2.8-3.9 4.6-6 8.4-2.1 3.8-3.5 5.6-3.1 4 .7-3.6-.4-7.7-2.1-7.7-2.1 0-4 4.6-6.4 16-2.2 10.5-4.9 18.2-6.8 19.4-3.5 2.2-5.5-12.5-2.8-21.6.9-3.1 1.3-6.3 1-7.2-1-2.6-3.4-1.8-4.6 1.5l-1.1 3.2-1.3-2.5c-1.8-3.4-3.9-4.1-7.3-2.4-5.9 3.1-11.9 15.9-12.8 27.1-.6 7-3.7 15-7.1 17.8-1.3 1-1.4.2-.9-6.8 3.2-40.1 5.7-84.4 5.7-102.7 0-7.2.7-12.3 2.6-19.9 3-11.6 2.9-19.5-.4-23.8-2.3-3.1-4.1-3.6-6.4-1.9zm287.6 82.4c0 2.6-1.4 6.7-3.8 11.5-6.1 12.1-11.7 16.3-13.1 10-1.9-8.6 8.6-26.8 14.9-25.9 1.8.3 2.1 1 2 4.4zm-77 4.7c-.2 4.9-8.6 22.1-11.9 24.3-3.4 2.2-4.5 1-4.5-4.9 0-9.4 9.1-24.3 14.4-23.5 1.7.2 2.1.9 2 4.1zM94.1 186.9c1.7 8.2-3.1 29.9-6.3 28.9-5.7-1.9-4.6-25 1.3-30.9 2.6-2.6 4.2-2 5 2zm112.5 27.8c2 2.6 1.7 4.7-1 7.2-1.4 1.3-2.2 3-1.9 3.8.5 1.2.7 1.2 1.4.1.6-1 1.1-1 2-.1.8.8.6 1.6-1 3.2-2.9 2.9-4.1 2.6-4.1-.9 0-4.6-2.6-3.7-3.6 1.2l-.8 4.3-.4-5.5c-.6-8.8.5-13.8 3.1-14.3 4.2-.8 5-.7 6.3 1zm-12.3 6.8c.9 6.1-.2 13.5-1.9 13.5-.8 0-1.4-1.1-1.4-2.5 0-3-2.7-2.4-3.2.8-.2 1.1-.9 2.2-1.5 2.5-1.7.5-1.6-8 .1-12.8 1.1-3 4.4-5.9 6.7-6 .4 0 .9 2 1.2 4.5zm-11.1.7c.5 10.3-1.4 14.2-7.2 15-3.7.6-4.3-1.4-2.8-10.8 1.2-7.7 1.4-7.9 7.6-8.3 1.9-.1 2.2.4 2.4 4.1zm-28.7 17.6c-.6 3.8-2.7 6.4-4 5-.9-.8 1.8-17.3 2.9-18 1.4-.9 2 6.9 1.1 13zm6.5-7.9c0 5.4.2 5.9 2 5.4 3.2-.8 2.4 2.4-1 4.2-4 2.1-4.7 1.9-5.3-1.2-.7-4 1.4-14.3 3-14.3.9 0 1.3 1.7 1.3 5.9zm-12.7.8c.7 4.2-.5 10.9-2.2 12.6-.8.8-1.1.3-1.1-1.6 0-1.5-.4-2.7-.8-2.7-1.4 0-3.2 2.3-3.2 4.1 0 .9-.7 1.9-1.5 2.3-3.9 1.5-.2-15.3 3.8-17.2 3.6-1.8 4.4-1.4 5 2.5zm-10.3 3.7c0 .7-.9 2-2.1 2.7-1.5 1-2.2 2.9-2.6 7.2-.4 4-1.1 6.1-2.3 6.7-1.4.8-1.9.5-2.3-1.6-.2-1.4-.1-4.1.3-6 .6-2.7.5-3.4-.7-3.4-3.1 0-.6-3.5 3.7-5.2 5.6-2.1 6-2.1 6-.4zm-14.5 7.5c-2.1 3.5-2.3 4.2-1 4.7 1.7.7 1.9 3.2.5 5.4-.9 1.3-1.2 1.3-2.1-.3-1.5-2.5-2.7-2.1-3.1 1-.2 1.4-.9 2.8-1.5 3.1-1.5.4-1.7-7.4-.5-14.2.9-5 2.9-5.8 3.4-1.4l.4 3.3 1.7-3.7c.9-2 2.2-3.8 2.9-4.1 2.3-.7 2 2.1-.7 6.2zm-9.5 2.5c0 2.3-.6 3.6-1.7 4.1-1 .3-1.9.1-2.1-.4-.7-2-1.8-1.1-3.1 2.4-.8 2.4-.9 4-.2 5.2.9 1.6 1.1 1.5 2-1 .6-1.5 1.8-2.7 2.7-2.7 1.2 0 1.4.6.9 3.2-.9 4-.5 3.7-4.3 4.4-2.9.6-3.1.4-3.7-2.9-.7-3.8 1.8-13.6 3.9-14.9.6-.4 2.1-.8 3.4-.8 1.8 0 2.2.5 2.2 3.4zm-11 5.3c0 1.2-.9 4.2-2 6.7-1.7 4-2.3 4.6-4.8 4.6-2.6 0-3-.4-3.5-3.5-.7-4.4 1.5-10.2 5.1-13.3l2.7-2.2 1.2 2.7c.7 1.6 1.2 3.8 1.3 5zm-46.4 6.5c-.4 4.6-1.3 17-2 27.6-1.1 14.5-1.8 19.9-3.1 21.8l-1.7 2.6-2.3-2.2c-3.9-3.7-6-12.2-6-24.5 0-10.4.2-11.4 3.2-17.5 2.9-5.8 10.6-16 12-16 .3 0 .3 3.7-.1 8.2zm34.4-3.8c0 3.6-1.9 5.3-3.9 3.3-1.3-1.3-4.1 4.7-3.4 7.4.7 2.6 2.1 2.4 2.5-.3.2-1.3 1.1-2.4 2.1-2.6 2.9-.6 2.3 5.6-.7 7-1.4.6-3.1.8-3.9.5-2.3-.9-2.8-6.1-1-11.4 2-6.1 3-7.3 5.9-7.3 2.1 0 2.4.5 2.4 3.4z"/><path d="M349.8 156.2c-3.1 4.8-5.9 11-5.6 12.6.2.9 2.1-1.8 4.2-6.1 3.7-7.3 4.6-11.4 1.4-6.5zm-78.2 7.3c-1.7 2.5-4.7 10-4.6 11.4.1.3 1.7-2.5 3.6-6.3 3.6-6.9 4.1-9.9 1-5.1zM88.7 196.9c-.4 1.8-.7 4.5-.6 6 .1 1.7.4 1.1 1-1.9.5-2.5.8-5.2.6-6-.2-.8-.6 0-1 1.9zm112 21.7c-1.4 1.4-.7 2.5 1.3 2.2 1.2-.2 2.1-.8 2.1-1.3 0-1.2-2.4-1.8-3.4-.9zm-10.9 4c-.5.4-.8 1.9-.8 3.3 0 1.8.3 2.2 1.1 1.4.6-.6.9-2.1.7-3.3-.1-1.2-.6-1.8-1-1.4zm-12.5-.1c-.3.9-.3 1.8 0 2.2 1 1 3.7-.6 3.7-2.2 0-2-2.9-2-3.7 0zm-.6 6.2c-.4.3-.7 1.5-.7 2.5 0 2.8 3.4 1.9 3.8-1 .3-2.1-1.6-3.1-3.1-1.5zm-34 7.5c-.7 2.5-.3 3.3 1.2 2.3 1.3-.8 1.5-4.5.2-4.5-.5 0-1.1 1-1.4 2.2zm-47.5 17.2c-1.1 2.4-.6 6.6.8 6.6 1.3 0 3.1-5.2 2.5-7.1-.8-2.6-2-2.4-3.3.5zm-46.9 15.2c-2.4 5.2-2.7 7-2.6 15.4.1 5.2.8 11.5 1.6 14l1.4 4.5.6-6.5c1.2-12.6 2.5-32.5 2.1-32.9-.2-.2-1.6 2.3-3.1 5.5zm6.9-133.1c-7.4 10.1-11.4 17.2-13.9 24.4-2.3 6.7-3 15.5-1.4 16.5 1.1.7 2.1-1.7 2.1-5.3 0-2.8 2.3-5.7 5-6.2 4.4-.8 8.4 3.4 10 10.6.6 2.5.8 1.9 1.4-3.5.8-8.1 2.5-42.4 2-42.8-.1-.2-2.5 2.6-5.2 6.3zm-1.5 24.7c-.3.8-.6.5-.6-.6-.1-1.1.2-1.7.5-1.3.3.3.4 1.2.1 1.9zm-24.8-23.5c-1.3 1.6-1.2 1.7.4.4.9-.7 1.7-1.5 1.7-1.7 0-.8-.8-.3-2.1 1.3zm257.7 33.8c-.9 2.6-.7 3.2.5 1.2.6-1 .9-2.1.6-2.3-.2-.3-.7.2-1.1 1.1zm-180.9 18c-.3 1.6-.9 4.8-1.1 7-.4 3.2-.2 2.9.9-1.5.8-3 1.3-6.2 1.2-7-.2-.8-.6-.2-1 1.5zm77.3 7.7c-2.1 8.3-7.5 10.2-11.5 4.2l-2.1-3.2-1.2 4.4c-1.5 5.5-4.8 7.5-8.5 5.1-2.3-1.5-2.5-1.4-4.3 2.1-1 2-2 4-2.2 4.3-.1.3 5-.6 11.5-2.2 6.5-1.5 18.3-3.7 26.3-4.9 8.4-1.2 15.5-2.8 17-3.7l2.5-1.7-2.6-1c-1.4-.6-3.3-1.7-4.2-2.4-1.1-1-1.7-1-2.2-.1-.4.6-2.3 1.7-4.2 2.5-3 1.3-3.8 1.3-6.7-.1-1.8-.9-4-3-4.8-4.8l-1.6-3.2-1.2 4.7zm-48.7 19.4c-.9 3.8-.8 4.4.4 4 .8-.4 2.6-.9 4.1-1.3 2.1-.5 2.3-.8 1.1-1.7-.8-.6-2.2-2.1-3-3.3-1.5-2.2-1.6-2.2-2.6 2.3zm-13.5 4.8c-.4 3.5.5 4.4 2.8 2.8.8-.5.6-1.6-.6-3.5l-1.8-2.9-.4 3.6zm-14.9 7.2c-2.5 2.6-2 2.8 2.9 1.1 3-1.1 3.1-1.3 1.3-2.4-1.6-1-2.2-.8-4.2 1.3z"/><path d="M92.6 232.2c-1.9 3.1-1.9 3.1 0 2.4 1-.5 3.8-1.5 6.2-2.3 4.7-1.7 5.3-2.4 2-2.1-1.3.1-3.2-.2-4.3-.5-1.6-.5-2.5 0-3.9 2.5z"/></svg>