<?xml version="1.0" standalone="no"?>
<!DOCTYPE svg PUBLIC "-//W3C//DTD SVG 20010904//EN"
 "http://www.w3.org/TR/2001/REC-SVG-20010904/DTD/svg10.dtd">
<svg version="1.0" xmlns="http://www.w3.org/2000/svg"
 width="400.000000pt" height="400.000000pt" viewBox="0 0 400.000000 400.000000"
 preserveAspectRatio="xMidYMid meet">

<g transform="translate(0.000000,400.000000) scale(0.100000,-0.100000)"
fill="#000000" stroke="none">
<path d="M1858 3459 c-255 -26 -492 -115 -708 -268 -36 -25 -111 -91 -168
-147 -56 -55 -99 -91 -95 -80 15 46 18 207 4 254 -15 50 -107 169 -135 174
-34 7 -127 -19 -143 -40 -44 -56 -55 -96 -62 -222 l-6 -125 -50 -70 c-27 -38
-55 -76 -62 -83 -19 -20 -16 -27 5 -10 35 30 45 33 33 7 -18 -37 66 59 96 110
24 40 27 55 28 155 3 163 40 236 121 236 97 0 130 -143 79 -340 -21 -80 -25
-119 -25 -245 0 -134 -8 -304 -25 -595 l-6 -95 31 54 c53 95 90 122 162 120
24 -1 53 2 65 6 31 10 73 -33 74 -77 1 -31 2 -30 14 15 23 84 71 132 110 110
13 -7 24 -2 51 25 32 32 38 34 81 29 40 -4 52 -1 76 19 59 50 133 18 147 -63
l6 -38 17 57 c9 31 17 65 17 75 0 48 60 90 104 73 21 -8 30 -4 59 25 40 40 79
52 119 37 25 -9 34 -7 65 14 41 27 51 29 88 12 33 -15 55 -56 55 -105 l1 -38
35 67 c19 37 45 75 59 84 23 15 27 15 50 0 34 -23 33 -75 -5 -196 -34 -109
-35 -117 -15 -100 20 16 77 167 80 210 1 19 3 43 4 52 2 26 46 51 76 44 14 -4
34 -21 45 -39 11 -17 20 -26 20 -18 0 24 247 515 274 544 32 34 70 36 91 3 22
-33 12 -65 -80 -280 -94 -219 -155 -367 -155 -374 0 -4 24 17 53 45 28 28 67
58 85 68 43 21 108 22 131 1 10 -9 20 -13 24 -10 12 12 57 -7 72 -30 15 -23
14 -29 -14 -96 -42 -98 -38 -100 12 -5 23 44 50 91 60 105 9 13 17 32 17 42 0
76 115 128 153 68 10 -17 12 -17 46 1 55 29 104 25 135 -12 15 -18 26 -43 26
-61 l0 -30 42 37 c53 44 133 70 173 55 15 -6 29 -9 31 -8 13 14 104 216 104
233 0 29 40 65 72 65 15 0 40 -12 57 -26 45 -37 43 -90 -6 -181 -74 -138 -203
-411 -203 -429 0 -3 9 -3 20 1 52 16 89 -43 64 -103 -44 -106 -171 -158 -240
-98 l-28 23 -48 -25 c-44 -23 -52 -24 -88 -13 -23 7 -49 24 -61 40 l-21 28
-36 -18 c-20 -11 -43 -19 -52 -19 -29 0 -79 39 -86 67 -11 46 -15 47 -41 2
-13 -24 -30 -47 -36 -51 -18 -11 -61 -10 -74 3 -8 8 -18 1 -38 -25 -54 -71
-121 -94 -166 -57 -23 19 -24 19 -54 -2 -18 -13 -45 -22 -69 -22 -32 0 -44 7
-70 37 -29 33 -33 35 -51 22 -27 -20 -68 -17 -97 5 l-25 20 -40 -57 c-21 -31
-50 -86 -63 -122 -38 -105 -85 -203 -113 -235 -14 -17 -47 -43 -74 -57 -47
-25 -445 -166 -753 -267 -160 -52 -267 -100 -379 -171 -77 -47 -116 -51 -159
-15 -39 33 -45 77 -31 239 15 173 23 195 77 223 l43 21 -33 17 c-19 9 -34 12
-36 6 -2 -5 -19 -31 -39 -56 -40 -52 -35 -18 -68 -470 -22 -300 -39 -414 -71
-486 -69 -154 -199 -129 -289 55 -59 121 -78 210 -79 376 0 110 4 161 18 210
41 152 120 268 246 365 l57 44 7 108 c4 59 9 142 12 183 l5 75 -19 -57 c-35
-104 -94 -158 -172 -158 -57 0 -103 24 -150 78 -52 58 -88 136 -107 230 -15
73 -13 113 12 222 l6 25 -11 -24 c-16 -37 -24 -17 -10 26 22 66 56 126 121
208 102 131 104 143 2 19 -71 -87 -119 -170 -148 -255 -32 -97 -30 -234 4
-319 42 -102 152 -247 217 -286 44 -26 121 -32 169 -14 28 11 28 14 10 -47 -3
-12 -14 -25 -24 -28 -62 -19 -176 -151 -226 -260 -48 -104 -67 -201 -66 -335
1 -203 39 -348 127 -481 69 -105 77 -113 126 -139 43 -23 121 -26 154 -7 55
31 105 123 123 224 19 108 31 228 31 301 0 76 7 85 44 57 23 -17 108 -20 137
-4 18 9 29 3 82 -49 149 -142 391 -282 580 -336 281 -81 579 -79 847 6 404
128 744 442 901 833 47 116 87 274 95 375 6 67 10 79 28 88 16 7 30 6 51 -5
43 -23 154 -13 200 18 48 32 97 110 102 162 4 42 -3 60 -44 114 l-22 30 106
209 c95 188 106 215 107 266 1 47 -4 63 -29 99 -43 61 -76 82 -138 87 -46 4
-57 1 -85 -23 -21 -18 -34 -39 -38 -63 -4 -21 -23 -71 -43 -112 l-36 -75 -55
-6 c-30 -3 -72 -15 -93 -26 l-38 -19 -39 38 c-21 21 -47 38 -58 38 -14 0 -32
21 -63 73 -143 242 -383 462 -631 576 -227 105 -512 155 -750 130z m366 -75
c165 -28 368 -108 506 -198 71 -46 38 -48 -39 -2 -147 88 -315 152 -481 182
-184 34 -463 19 -623 -32 -26 -9 -53 -14 -60 -11 -29 10 223 69 343 81 75 7
259 -3 354 -20z m153 -135 c54 -17 142 -54 195 -81 83 -44 96 -53 88 -68 -9
-16 -22 -11 -137 46 -71 35 -159 71 -198 81 -80 19 -108 35 -49 27 39 -5 39
-5 14 10 -36 22 -22 20 87 -15z m143 -120 c69 -34 119 -64 113 -66 -7 -3 -26
5 -43 17 -41 29 -160 83 -245 110 -93 30 -107 45 -19 20 38 -11 125 -47 194
-81z m-175 45 c79 -25 222 -89 259 -117 18 -13 18 -15 1 -48 -10 -19 -19 -36
-21 -38 -1 -2 -49 20 -106 47 -57 28 -139 61 -183 74 -73 21 -94 32 -95 49 0
3 12 4 28 1 27 -5 27 -5 8 17 -13 14 -15 21 -6 21 10 0 9 4 -1 16 -16 19 -21
20 116 -22z m-1070 -44 c-3 -5 -39 -35 -80 -66 -41 -30 -114 -97 -161 -147
-48 -51 -81 -81 -74 -68 11 21 10 23 -4 18 -29 -11 -2 25 79 107 94 94 189
166 222 166 13 0 21 -4 18 -10z m35 -27 c0 -10 -23 -33 -52 -53 -56 -38 -179
-155 -247 -235 -24 -27 -36 -38 -27 -23 14 25 14 27 -1 30 -34 6 279 298 319
298 4 0 8 -8 8 -17z m941 -21 c-7 -2 -18 1 -23 6 -8 8 -4 9 13 5 13 -4 18 -8
10 -11z m732 -105 c69 -75 129 -153 176 -230 68 -112 35 -96 -42 20 -39 59
-107 146 -152 193 -44 47 -89 99 -100 115 -18 29 -17 28 26 -8 24 -22 66 -62
92 -90z m-668 93 c13 -5 14 -9 5 -9 -8 0 -24 4 -35 9 -13 5 -14 9 -5 9 8 0 24
-4 35 -9z m-915 -8 c0 -4 -36 -31 -79 -60 -44 -28 -122 -92 -175 -142 -55 -52
-104 -90 -116 -90 -11 0 -20 4 -20 8 0 5 27 40 59 79 65 77 199 190 234 198
12 2 31 6 42 8 34 8 55 7 55 -1z m918 -22 c89 -29 225 -91 235 -107 3 -5 -4
-30 -15 -56 l-20 -47 -82 44 c-44 24 -119 56 -166 70 -121 38 -119 37 -94 46
17 7 21 15 19 44 -4 45 2 45 123 6z m160 -37 c50 -25 92 -49 92 -55 0 -5 -15
0 -34 11 -18 12 -71 39 -117 61 -46 23 -73 38 -59 35 14 -4 67 -27 118 -52z
m-1114 -12 c3 -4 -32 -38 -79 -75 -46 -36 -110 -96 -143 -131 -56 -62 -82 -79
-82 -54 0 20 71 97 158 172 109 93 134 108 146 88z m66 -27 c0 -3 -5 -14 -10
-25 -9 -16 -7 -21 11 -27 20 -8 18 -11 -25 -36 -25 -15 -89 -68 -142 -118 -65
-63 -98 -88 -103 -80 -4 7 -15 10 -24 6 -14 -5 -17 0 -17 26 0 25 13 45 63 97
57 60 162 143 197 156 20 7 50 8 50 1z m840 -55 c88 -29 224 -99 214 -109 -5
-5 -46 10 -95 34 -47 24 -118 52 -158 62 -70 18 -93 34 -48 34 13 0 52 -9 87
-21z m-163 -10 c129 -17 343 -99 369 -141 4 -6 -22 6 -58 26 -132 73 -264 107
-424 107 -325 0 -602 -164 -769 -454 -25 -45 -43 -71 -40 -57 13 43 81 152
137 217 161 188 409 305 660 312 26 0 82 -4 125 -10z m874 -39 c29 -31 52 -48
62 -45 9 4 16 -1 20 -14 4 -17 2 -19 -13 -11 -26 14 -30 13 -30 -7 0 -24 -86
62 -99 99 -15 43 6 35 60 -22z m849 39 c11 -7 4 -8 -25 -3 -50 8 -58 14 -19
14 16 0 36 -5 44 -11z m-1450 -9 c8 -5 11 -10 5 -10 -5 0 -17 5 -25 10 -8 5
-10 10 -5 10 6 0 17 -5 25 -10z m-900 -4 c0 -2 -35 -31 -78 -64 -43 -33 -106
-90 -140 -126 -34 -36 -64 -66 -67 -66 -20 0 4 42 58 97 84 88 227 188 227
159z m1000 -52 c0 -2 -9 0 -20 6 -11 6 -20 13 -20 16 0 2 9 0 20 -6 11 -6 20
-13 20 -16z m478 -24 c51 -60 42 -67 -13 -10 -21 22 -44 40 -49 40 -6 0 6 -17
26 -37 20 -21 41 -48 47 -60 10 -20 9 -23 -14 -29 -21 -5 -33 0 -62 27 -19 19
-39 43 -45 54 -9 16 -8 18 3 8 20 -19 31 -16 27 10 -3 19 16 46 32 47 3 0 24
-23 48 -50z m-753 19 c58 -14 142 -48 202 -82 48 -26 52 -31 41 -50 -6 -12
-17 -25 -24 -29 -6 -5 -10 -17 -7 -28 4 -16 2 -19 -11 -14 -9 3 -16 9 -16 13
0 11 -87 -4 -103 -17 -11 -9 -21 -8 -46 4 -39 20 -76 12 -113 -23 l-27 -25
-28 19 c-24 18 -67 34 -98 38 -5 0 -26 -9 -46 -21 -28 -17 -43 -21 -70 -15
-40 9 -92 -9 -131 -46 -17 -17 -33 -23 -46 -19 -11 4 -31 2 -46 -4 -37 -14
-96 -62 -96 -78 0 -10 -4 -10 -15 2 -9 9 -22 19 -29 23 -7 5 -20 19 -30 33
l-18 25 8 -25 c4 -14 16 -32 28 -40 20 -14 19 -15 -29 -23 -27 -4 -58 -8 -67
-9 -10 -1 -18 -8 -18 -14 0 -8 -21 -13 -54 -16 l-53 -3 15 32 c8 18 20 29 25
26 6 -3 7 -1 3 6 -9 13 62 111 80 111 6 0 19 -9 29 -20 10 -11 23 -20 29 -20
5 0 -5 13 -23 28 l-33 28 41 37 c23 21 47 35 53 31 6 -4 8 -3 5 3 -4 6 0 16 8
23 8 7 15 10 15 6 0 -3 9 3 21 15 29 29 184 102 219 103 17 1 30 4 30 8 0 26
324 32 425 7z m-741 2 c4 -5 -15 -25 -41 -44 -27 -20 -79 -67 -118 -106 -68
-70 -85 -82 -85 -61 0 16 86 106 159 167 67 55 76 59 85 44z m1462 -149 c-8
-13 -96 79 -96 99 0 8 23 -9 51 -38 28 -28 49 -55 45 -61z m-63 37 l34 -42
-25 -39 c-25 -37 -28 -38 -74 -36 -51 3 -56 8 -33 31 8 8 11 18 7 22 -4 5 1 5
11 2 18 -7 24 7 8 17 -10 7 17 86 30 86 4 0 23 -19 42 -41z m807 27 c0 -11
-19 -15 -25 -6 -3 5 1 10 9 10 9 0 16 -2 16 -4z m-593 -808 c-8 -84 -16 -120
-27 -113 -4 2 -15 -4 -25 -15 -24 -27 -35 -25 -35 6 0 23 -2 25 -15 14 -9 -7
-17 -11 -20 -9 -2 3 1 37 7 77 9 54 15 72 27 72 9 0 30 9 46 19 17 11 34 20
39 20 5 1 6 -30 3 -71z m128 -27 c-10 -91 -17 -121 -26 -121 -5 0 -9 7 -9 15
0 23 -16 18 -34 -10 -21 -32 -51 -34 -42 -2 3 12 11 58 17 102 l11 80 45 -4
45 -3 -7 -57z m25 -33 c-7 -51 -16 -100 -21 -108 -12 -21 -11 -3 2 79 6 36 13
81 15 100 3 18 8 30 11 27 3 -3 0 -47 -7 -98z m-273 70 c-3 -8 -6 -5 -6 6 -1
11 2 17 5 13 3 -3 4 -12 1 -19z m138 -76 c-10 -80 -17 -57 -8 29 4 41 9 63 11
50 2 -14 1 -49 -3 -79z m191 17 c-5 -57 -23 -133 -25 -105 -1 5 -8 2 -18 -5
-15 -13 -16 -11 -10 11 3 14 9 54 12 90 8 84 11 91 31 83 14 -5 16 -16 10 -74z
m-361 -16 c-9 -38 -26 -16 -20 25 4 20 9 44 13 52 8 21 15 -46 7 -77z m-461
55 c35 1 93 -27 81 -39 -10 -10 116 -9 135 1 28 15 130 -7 130 -28 0 -28 -32
-122 -41 -122 -6 0 -8 -4 -4 -9 7 -12 -15 -61 -27 -61 -5 0 -7 -4 -4 -9 8 -12
-38 -93 -74 -131 -15 -16 -25 -30 -22 -30 14 0 -97 -105 -155 -146 -219 -158
-478 -197 -756 -114 -22 6 -35 15 -31 22 4 6 -1 8 -12 5 -11 -3 -39 5 -64 18
-25 13 -42 24 -39 25 4 0 66 20 138 45 72 25 136 43 141 40 6 -3 10 -2 10 4 0
8 50 27 120 46 3 1 18 7 34 14 23 9 31 9 39 -1 6 -10 8 -9 4 3 -4 12 6 22 33
34 63 28 109 83 158 185 25 52 45 96 44 97 -4 8 32 94 54 126 21 31 29 37 47
31 12 -4 40 -7 61 -6z m906 -24 c0 -41 -38 -216 -66 -307 -60 -190 -168 -368
-320 -526 -204 -213 -486 -360 -777 -406 -76 -12 -111 -14 -124 -6 -15 9 -13
10 13 11 58 0 204 30 302 61 384 123 702 415 852 783 42 104 85 263 96 355 6
60 24 85 24 35z m-515 -85 c-98 -403 -456 -686 -862 -680 -166 2 -309 38 -431
109 -69 39 -43 35 41 -7 134 -67 219 -86 392 -86 126 0 162 4 228 23 311 90
547 335 619 645 12 50 24 85 26 78 2 -7 -3 -44 -13 -82z m92 54 c-3 -10 -5 -4
-5 12 0 17 2 24 5 18 2 -7 2 -21 0 -30z m245 -129 c18 -5 18 -7 4 -23 -9 -10
-16 -28 -16 -40 0 -21 -1 -21 -22 -7 -15 11 -26 12 -39 5 -16 -8 -18 -5 -17
18 1 16 -2 36 -6 46 -6 13 -3 17 12 17 11 0 26 7 33 16 12 15 14 14 23 -5 5
-11 18 -23 28 -27z m-137 -147 c81 -31 95 -69 33 -85 -32 -8 -33 -9 -10 -21
24 -13 26 -19 13 -39 -7 -11 -18 -9 -59 12 -28 14 -53 26 -56 26 -7 0 -19 -61
-13 -66 3 -3 14 0 26 7 27 18 36 6 23 -30 -14 -40 2 -40 18 -1 7 17 16 30 21
30 14 0 11 -16 -12 -55 -19 -32 -25 -35 -53 -30 -26 6 -85 57 -86 76 0 3 15
22 34 43 19 20 36 45 38 54 2 12 15 18 46 20 49 4 54 15 12 32 -16 7 -30 19
-30 26 0 17 14 17 55 1z m-155 -227 c42 -21 70 -54 70 -82 0 -21 -11 -23 -28
-6 -9 9 -13 7 -18 -6 -4 -11 0 -22 12 -31 14 -10 16 -17 8 -25 -13 -13 -73 20
-108 59 -18 20 -19 23 -3 38 15 16 18 15 37 -2 11 -10 23 -15 28 -11 4 5 -7
20 -24 34 -17 15 -29 33 -27 40 6 16 7 16 53 -8z m-75 -100 c15 -16 16 -23 6
-33 -6 -6 -19 -12 -29 -12 -11 0 -16 -6 -14 -20 5 -29 21 -45 44 -45 18 0 19
2 7 16 -11 14 -10 18 6 30 17 13 22 12 39 -6 20 -19 20 -20 -4 -45 -13 -14
-31 -25 -41 -25 -21 0 -69 20 -69 29 0 3 -4 13 -10 21 -7 12 -12 11 -30 -5
l-21 -19 37 -37 c31 -32 35 -41 24 -54 -19 -23 -35 -18 -66 18 -15 17 -36 32
-47 32 -11 0 -22 5 -23 10 -4 15 94 88 107 79 8 -4 9 1 4 17 -6 18 -2 28 21
46 35 28 36 28 59 3z m-1385 -35 c21 -25 1 -31 -22 -7 -18 18 -19 22 -6 22 8
0 21 -7 28 -15z m-30 -25 c28 -23 31 -29 17 -30 -24 0 -79 39 -72 51 9 14 18
11 55 -21z m-40 -25 c19 -19 29 -35 22 -35 -7 0 -12 -10 -12 -23 0 -20 -4 -23
-29 -19 -16 2 -50 21 -76 43 -46 38 -46 39 -23 47 12 5 30 12 38 15 31 12 47
6 80 -28z m-90 -57 c66 -50 81 -70 62 -82 -12 -7 -163 114 -157 125 11 16 24
10 95 -43z m-55 -19 c52 -42 85 -83 85 -104 0 -18 -43 4 -110 55 -92 70 -96
75 -73 89 28 16 31 14 98 -40z m-57 -41 c43 -35 92 -73 108 -86 25 -20 26 -22
7 -17 -14 4 -23 2 -23 -5 0 -14 -70 36 -145 103 -42 37 -53 52 -43 58 7 5 14
9 15 9 1 0 38 -28 81 -62z m1476 18 c40 -49 50 -88 25 -94 -19 -4 -94 111 -84
128 11 17 22 11 59 -34z m-1558 -17 c16 -17 61 -54 99 -82 90 -65 96 -70 62
-58 -35 14 -40 14 -32 1 12 -20 -9 -9 -59 29 -95 73 -140 117 -132 129 12 20
31 14 62 -19z m1490 -30 c-6 -35 -4 -39 14 -39 24 0 44 -41 26 -52 -6 -4 -12
-3 -14 2 -2 6 -13 10 -23 10 -15 0 -19 -6 -17 -22 2 -17 -2 -23 -16 -23 -13 0
-30 19 -53 61 -28 51 -31 63 -19 73 11 9 18 5 34 -21 l21 -32 6 26 c4 15 4 31
1 37 -7 11 24 32 37 24 5 -3 6 -23 3 -44z m-1063 -50 l21 -12 -23 -9 c-13 -4
-25 -17 -28 -28 -6 -24 -19 -26 -27 -5 -3 8 -17 15 -31 15 -22 0 -24 3 -16 18
6 10 7 29 4 41 -5 19 -3 21 19 16 17 -4 29 -1 39 11 13 16 14 15 17 -9 2 -15
13 -32 25 -38z m160 0 c26 -7 41 -18 47 -35 17 -44 12 -61 -22 -75 -18 -7 -34
-13 -36 -14 -1 -1 0 -10 4 -19 5 -12 10 -14 19 -6 13 11 45 4 45 -10 0 -4 -8
-15 -19 -24 -15 -14 -23 -15 -45 -5 -20 10 -26 19 -26 46 0 26 -4 33 -20 33
-11 0 -20 -4 -20 -10 0 -5 -4 -10 -10 -10 -15 0 -12 39 7 93 18 51 20 52 76
36z m727 -3 c0 -8 -9 -18 -20 -21 -27 -9 -26 -35 1 -32 32 3 35 -21 5 -34 -34
-16 -34 -31 0 -19 14 6 32 10 40 10 27 0 5 -18 -41 -33 l-44 -16 -21 33 c-11
19 -20 50 -20 69 0 32 4 37 28 43 15 3 32 7 37 9 22 8 35 4 35 -9z m-557 -42
c34 -8 36 -34 3 -34 -32 0 -44 -20 -17 -27 36 -9 25 -33 -15 -33 -21 0 -33 -4
-29 -10 3 -5 19 -10 35 -10 16 0 32 -4 35 -10 7 -11 -63 -14 -89 -4 -35 13 -2
150 33 140 9 -3 28 -8 44 -12z m429 -12 c24 -40 28 -105 7 -110 -10 -2 -19 5
-22 18 -7 27 -25 25 -36 -4 -15 -39 -38 -40 -51 -1 -14 41 -4 102 19 115 32
19 66 11 83 -18z m-303 12 c26 -6 31 -11 31 -35 0 -24 -4 -29 -25 -29 -16 0
-25 6 -25 15 0 26 -27 16 -40 -14 -13 -33 0 -71 25 -71 20 0 19 19 0 26 -28
11 -15 24 25 24 l40 0 0 -40 c0 -39 -1 -40 -32 -39 -51 1 -71 13 -83 50 -10
29 -9 40 8 77 22 44 26 46 76 36z m169 -26 c2 -16 -1 -28 -7 -28 -5 0 -16 -3
-25 -6 -11 -4 -16 -1 -16 10 0 25 -26 19 -39 -10 -10 -22 -9 -31 4 -50 17 -26
30 -30 40 -13 4 6 -2 13 -14 16 -33 8 -25 20 17 26 48 6 52 3 52 -39 0 -32 -2
-34 -34 -34 -19 0 -41 -3 -50 -6 -10 -4 -20 5 -30 31 -20 46 -20 54 -1 99 15
35 18 37 58 34 38 -3 42 -6 45 -30z"/>
<path d="M1707 2773 c-2 -5 5 -17 16 -27 18 -17 20 -17 14 -2 -4 10 -7 22 -7
27 0 11 -17 12 -23 2z"/>
<path d="M2130 2759 c0 -5 5 -7 10 -4 6 3 10 8 10 11 0 2 -4 4 -10 4 -5 0 -10
-5 -10 -11z"/>
<path d="M1750 2740 c0 -5 7 -10 15 -10 9 0 12 -6 9 -17 -4 -11 -2 -14 3 -8
14 17 36 17 30 0 -4 -8 -2 -15 4 -15 6 0 9 8 7 17 -3 18 -68 50 -68 33z"/>
<path d="M1830 2700 c0 -13 11 -13 30 0 12 8 11 10 -7 10 -13 0 -23 -4 -23
-10z"/>
<path d="M2050 2680 c0 -5 5 -10 11 -10 5 0 7 5 4 10 -3 6 -8 10 -11 10 -2 0
-4 -4 -4 -10z"/>
<path d="M2183 2673 c9 -2 23 -2 30 0 6 3 -1 5 -18 5 -16 0 -22 -2 -12 -5z"/>
<path d="M2358 2663 c6 -2 18 -2 25 0 6 3 1 5 -13 5 -14 0 -19 -2 -12 -5z"/>
<path d="M1580 2630 c0 -5 7 -7 15 -4 8 4 15 8 15 10 0 2 -7 4 -15 4 -8 0 -15
-4 -15 -10z"/>
<path d="M1870 2620 c0 -5 5 -10 11 -10 5 0 7 5 4 10 -3 6 -8 10 -11 10 -2 0
-4 -4 -4 -10z"/>
<path d="M2529 1763 c-12 -16 -12 -17 2 -6 9 7 20 9 24 5 5 -4 5 -1 1 6 -9 16
-11 15 -27 -5z"/>
<path d="M2340 1632 c6 -13 14 -21 18 -18 3 4 -2 14 -12 24 -18 16 -18 16 -6
-6z"/>
<path d="M2576 1568 c3 -4 9 -8 15 -8 5 0 9 4 9 8 0 5 -7 9 -15 9 -8 0 -12 -4
-9 -9z"/>
<path d="M2465 1480 c-3 -5 -1 -10 4 -10 6 0 11 5 11 10 0 6 -2 10 -4 10 -3 0
-8 -4 -11 -10z"/>
<path d="M1627 940 c-4 -16 1 -23 20 -31 24 -9 43 -5 43 9 0 14 -16 30 -36 36
-17 5 -23 2 -27 -14z"/>
<path d="M2210 901 c0 -12 6 -21 16 -21 9 0 14 7 12 17 -5 25 -28 28 -28 4z"/>
<path d="M688 3298 c-34 -25 -48 -83 -48 -191 0 -130 -14 -160 -141 -307 -151
-174 -260 -312 -284 -360 -79 -156 -70 -326 24 -463 128 -186 291 -84 292 184
0 89 -20 152 -48 147 -13 -2 -19 -14 -21 -43 -4 -46 -26 -75 -57 -75 -89 0
-76 180 27 354 35 59 181 261 211 291 16 17 -15 -691 -49 -1096 l-6 -77 -64
-46 c-126 -93 -205 -212 -239 -361 -19 -81 -22 -252 -6 -342 33 -177 125 -333
197 -333 51 0 91 72 113 205 6 33 17 159 26 280 9 121 20 261 25 310 5 50 10
112 10 138 0 40 6 55 41 99 22 28 50 70 61 91 l20 40 25 -31 c45 -59 96 -32
123 64 l13 47 16 -33 c35 -72 70 -66 112 20 l27 54 6 -31 c4 -17 18 -41 31
-53 l24 -23 10 24 c5 13 14 71 20 128 6 57 18 131 27 163 27 106 84 215 84
161 0 -10 -9 -61 -20 -113 -29 -139 -23 -310 10 -310 12 0 17 20 35 141 25
166 81 329 115 329 13 0 14 3 -17 -113 -34 -131 -36 -234 -7 -274 50 -67 79
-40 151 136 9 25 10 24 29 -15 10 -21 26 -39 34 -39 15 0 21 20 64 216 26 118
125 301 120 221 -1 -9 -14 -57 -29 -107 -31 -102 -45 -248 -26 -284 7 -12 16
-19 21 -16 4 3 20 54 34 114 31 132 67 230 107 293 29 45 49 61 49 39 0 -5
-17 -58 -37 -118 -46 -134 -52 -238 -16 -274 31 -32 68 -19 101 35 l27 43 15
-41 c13 -34 20 -41 46 -44 31 -3 59 20 106 88 13 19 11 8 -7 -48 -49 -148 -73
-165 -267 -193 -282 -41 -450 -89 -958 -274 -85 -31 -163 -64 -172 -73 -19
-19 -38 -162 -38 -285 0 -117 39 -130 159 -52 104 67 180 100 411 176 325 106
635 216 690 244 62 32 94 79 150 221 22 56 40 106 40 110 0 3 22 36 48 73 27
36 57 81 69 99 l20 33 12 -40 c21 -73 59 -75 119 -7 l30 35 7 -42 c17 -104 68
-117 139 -35 l46 53 0 -33 c0 -31 28 -72 50 -72 16 0 90 71 122 118 l31 45 15
-37 c8 -20 20 -35 26 -33 6 1 40 62 76 133 67 135 122 219 167 254 60 47 57
14 -9 -92 -62 -100 -88 -164 -88 -219 0 -91 51 -106 125 -38 l45 42 0 -27 c0
-34 24 -82 45 -90 48 -18 107 13 145 77 l18 29 7 -42 c10 -60 37 -84 83 -75
48 9 78 29 102 68 34 55 19 92 -18 47 -10 -11 -28 -21 -42 -22 -20 -3 -26 2
-28 23 -4 37 56 183 165 399 51 102 93 195 93 206 0 28 -23 46 -52 42 -17 -2
-24 -12 -30 -40 -11 -54 -131 -288 -148 -288 -3 0 -10 10 -15 23 -35 79 -193
-21 -266 -168 -32 -65 -82 -120 -100 -109 -20 12 -6 61 43 147 55 95 65 144
36 173 -24 24 -71 9 -131 -40 l-52 -42 3 48 c4 46 3 48 -21 48 -28 0 -57 -32
-57 -63 0 -10 -8 -31 -18 -45 -31 -45 -78 -135 -96 -183 -19 -51 -77 -119
-100 -119 -30 0 -19 83 24 189 22 53 40 100 40 104 0 17 -39 5 -45 -13 -9 -28
-23 -25 -27 6 -4 36 -27 48 -73 40 -51 -10 -161 -119 -197 -196 -42 -90 -78
-104 -78 -31 0 40 53 180 197 515 81 190 106 266 87 266 -5 0 -21 -19 -35 -43
-60 -94 -306 -610 -345 -720 -15 -43 -104 -190 -111 -184 -2 3 14 51 35 108
83 219 99 299 63 318 -25 14 -31 5 -31 -41 0 -42 -51 -184 -84 -235 -24 -37
-58 -58 -80 -50 -25 10 -19 80 14 187 31 98 37 140 20 140 -9 0 -67 -112 -139
-267 -58 -127 -108 -96 -62 39 10 30 25 80 31 111 11 49 11 59 -4 81 -25 38
-58 34 -99 -14 -19 -22 -36 -40 -39 -40 -3 0 -9 11 -12 24 -15 60 -70 38 -132
-51 -25 -37 -44 -60 -40 -50 3 9 1 29 -4 43 -13 33 -52 30 -62 -6 -3 -14 -19
-70 -33 -125 -42 -154 -54 -191 -78 -226 -50 -74 -65 -31 -37 106 25 120 25
147 1 176 -16 20 -22 22 -44 12 -15 -7 -39 -31 -54 -54 l-27 -41 -9 25 c-11
33 -41 43 -71 24 -12 -8 -39 -46 -60 -84 -21 -38 -35 -56 -31 -40 7 36 -4 77
-21 77 -21 0 -40 -46 -64 -160 -22 -105 -49 -182 -68 -194 -35 -22 -55 125
-28 216 9 31 13 63 10 72 -10 26 -34 18 -46 -15 l-11 -32 -13 25 c-18 34 -39
41 -73 24 -59 -31 -119 -159 -128 -271 -6 -70 -37 -150 -71 -178 -13 -10 -14
-2 -9 68 32 401 57 844 57 1027 0 72 7 123 26 199 30 116 29 195 -4 238 -23
31 -41 36 -64 19z m2876 -824 c0 -26 -14 -67 -38 -115 -61 -121 -117 -163
-131 -100 -19 86 86 268 149 259 18 -3 21 -10 20 -44z m-770 -47 c-2 -49 -86
-221 -119 -243 -34 -22 -45 -10 -45 49 0 94 91 243 144 235 17 -2 21 -9 20
-41z m-1853 -296 c17 -82 -31 -299 -63 -289 -57 19 -46 250 13 309 26 26 42
20 50 -20z m1125 -278 c20 -26 17 -47 -10 -72 -14 -13 -22 -30 -19 -38 5 -12
7 -12 14 -1 6 10 11 10 20 1 8 -8 6 -16 -10 -32 -29 -29 -41 -26 -41 9 0 46
-26 37 -36 -12 l-8 -43 -4 55 c-6 88 5 138 31 143 42 8 50 7 63 -10z m-123
-68 c9 -61 -2 -135 -19 -135 -8 0 -14 11 -14 25 0 30 -27 24 -32 -8 -2 -11 -9
-22 -15 -25 -17 -5 -16 80 1 128 11 30 44 59 67 60 4 0 9 -20 12 -45z m-111
-7 c5 -103 -14 -142 -72 -150 -37 -6 -43 14 -28 108 12 77 14 79 76 83 19 1
22 -4 24 -41z m-287 -176 c-6 -38 -27 -64 -40 -50 -9 8 18 173 29 180 14 9 20
-69 11 -130z m65 79 c0 -54 2 -59 20 -54 32 8 24 -24 -10 -42 -40 -21 -47 -19
-53 12 -7 40 14 143 30 143 9 0 13 -17 13 -59z m-127 -8 c7 -42 -5 -109 -22
-126 -8 -8 -11 -3 -11 16 0 15 -4 27 -8 27 -14 0 -32 -23 -32 -41 0 -9 -7 -19
-15 -23 -39 -15 -2 153 38 172 36 18 44 14 50 -25z m-103 -37 c0 -7 -9 -20
-21 -27 -15 -10 -22 -29 -26 -72 -4 -40 -11 -61 -23 -67 -14 -8 -19 -5 -23 16
-2 14 -1 41 3 60 6 27 5 34 -7 34 -31 0 -6 35 37 52 56 21 60 21 60 4z m-145
-75 c-21 -35 -23 -42 -10 -47 17 -7 19 -32 5 -54 -9 -13 -12 -13 -21 3 -15 25
-27 21 -31 -10 -2 -14 -9 -28 -15 -31 -15 -4 -17 74 -5 142 9 50 29 58 34 14
l4 -33 17 37 c9 20 22 38 29 41 23 7 20 -21 -7 -62z m-95 -25 c0 -23 -6 -36
-17 -41 -10 -3 -19 -1 -21 4 -7 20 -18 11 -31 -24 -8 -24 -9 -40 -2 -52 9 -16
11 -15 20 10 6 15 18 27 27 27 12 0 14 -6 9 -32 -9 -40 -5 -37 -43 -44 -29 -6
-31 -4 -37 29 -7 38 18 136 39 149 6 4 21 8 34 8 18 0 22 -5 22 -34z m-110
-53 c0 -12 -9 -42 -20 -67 -17 -40 -23 -46 -48 -46 -26 0 -30 4 -35 35 -7 44
15 102 51 133 l27 22 12 -27 c7 -16 12 -38 13 -50z m-464 -65 c-4 -46 -13
-170 -20 -276 -11 -145 -18 -199 -31 -218 l-17 -26 -23 22 c-39 37 -60 122
-60 245 0 104 2 114 32 175 29 58 106 160 120 160 3 0 3 -37 -1 -82z m344 38
c0 -36 -19 -53 -39 -33 -13 13 -41 -47 -34 -74 7 -26 21 -24 25 3 2 13 11 24
21 26 29 6 23 -56 -7 -70 -14 -6 -31 -8 -39 -5 -23 9 -28 61 -10 114 20 61 30
73 59 73 21 0 24 -5 24 -34z"/>
<path d="M3498 2438 c-31 -48 -59 -110 -56 -126 2 -9 21 18 42 61 37 73 46
114 14 65z"/>
<path d="M2716 2365 c-17 -25 -47 -100 -46 -114 1 -3 17 25 36 63 36 69 41 99
10 51z"/>
<path d="M887 2031 c-4 -18 -7 -45 -6 -60 1 -17 4 -11 10 19 5 25 8 52 6 60
-2 8 -6 0 -10 -19z"/>
<path d="M2007 1814 c-14 -14 -7 -25 13 -22 12 2 21 8 21 13 0 12 -24 18 -34
9z"/>
<path d="M1898 1774 c-5 -4 -8 -19 -8 -33 0 -18 3 -22 11 -14 6 6 9 21 7 33
-1 12 -6 18 -10 14z"/>
<path d="M1773 1775 c-3 -9 -3 -18 0 -22 10 -10 37 6 37 22 0 20 -29 20 -37 0z"/>
<path d="M1767 1713 c-4 -3 -7 -15 -7 -25 0 -28 34 -19 38 10 3 21 -16 31 -31
15z"/>
<path d="M1427 1638 c-7 -25 -3 -33 12 -23 13 8 15 45 2 45 -5 0 -11 -10 -14
-22z"/>
<path d="M952 1466 c-11 -24 -6 -66 8 -66 13 0 31 52 25 71 -8 26 -20 24 -33
-5z"/>
<path d="M483 1314 c-24 -52 -27 -70 -26 -154 1 -52 8 -115 16 -140 l14 -45 6
65 c12 126 25 325 21 329 -2 2 -16 -23 -31 -55z"/>
<path d="M552 2645 c-74 -101 -114 -172 -139 -244 -23 -67 -30 -155 -14 -165
11 -7 21 17 21 53 0 28 23 57 50 62 44 8 84 -34 100 -106 6 -25 8 -19 14 35 8
81 25 424 20 428 -1 2 -25 -26 -52 -63z m-15 -247 c-3 -8 -6 -5 -6 6 -1 11 2
17 5 13 3 -3 4 -12 1 -19z"/>
<path d="M289 2633 c-13 -16 -12 -17 4 -4 9 7 17 15 17 17 0 8 -8 3 -21 -13z"/>
<path d="M2866 2295 c-9 -26 -7 -32 5 -12 6 10 9 21 6 23 -2 3 -7 -2 -11 -11z"/>
<path d="M1057 2115 c-3 -16 -9 -48 -11 -70 -4 -32 -2 -29 9 15 8 30 13 62 12
70 -2 8 -6 2 -10 -15z"/>
<path d="M1830 2038 c-21 -83 -75 -102 -115 -42 l-21 32 -12 -44 c-15 -55 -48
-75 -85 -51 -23 15 -25 14 -43 -21 -10 -20 -20 -40 -22 -43 -1 -3 50 6 115 22
65 15 183 37 263 49 84 12 155 28 170 37 l25 17 -26 10 c-14 6 -33 17 -42 24
-11 10 -17 10 -22 1 -4 -6 -23 -17 -42 -25 -30 -13 -38 -13 -67 1 -18 9 -40
30 -48 48 l-16 32 -12 -47z"/>
<path d="M1343 1844 c-9 -38 -8 -44 4 -40 8 4 26 9 41 13 21 5 23 8 11 17 -8
6 -22 21 -30 33 -15 22 -16 22 -26 -23z"/>
<path d="M1208 1796 c-4 -35 5 -44 28 -28 8 5 6 16 -6 35 l-18 29 -4 -36z"/>
<path d="M1059 1724 c-25 -26 -20 -28 29 -11 30 11 31 13 13 24 -16 10 -22 8
-42 -13z"/>
<path d="M926 1678 c-19 -31 -19 -31 0 -24 10 5 38 15 62 23 47 17 53 24 20
21 -13 -1 -32 2 -43 5 -16 5 -25 0 -39 -25z"/>
</g>
</svg>
